<mxfile host="app.diagrams.net" modified="2023-12-02T08:19:03.382Z" agent="Mozilla/5.0 (Macintosh; Intel Mac OS X 10_15_7) AppleWebKit/605.1.15 (KHTML, like Gecko) Version/17.1 Safari/605.1.15" etag="2m_tvepggaxLJVIgiglE" version="22.1.4" type="github">
  <diagram name="Page-1" id="_Yi7hi63YLIVYFva-jth">
    <mxGraphModel dx="1242" dy="827" grid="1" gridSize="10" guides="1" tooltips="1" connect="1" arrows="1" fold="1" page="1" pageScale="1" pageWidth="827" pageHeight="1169" math="0" shadow="0">
      <root>
        <mxCell id="0" />
        <mxCell id="1" parent="0" />
        <mxCell id="9xhjTHKyAUEuxCZ2QbmT-12" value="&lt;p style=&quot;margin:0px;margin-top:4px;text-align:center;&quot;&gt;&lt;b&gt;ModelSpec&lt;/b&gt;&lt;/p&gt;&lt;div style=&quot;height:2px;&quot;&gt;&lt;ul&gt;&lt;li&gt;Stores model object&lt;br&gt;&lt;/li&gt;&lt;li&gt;Standardises fit/predict interface&lt;/li&gt;&lt;li&gt;Stores metrics&lt;/li&gt;&lt;li&gt;Stores hyperparameter ranges for tuning&lt;/li&gt;&lt;li&gt;Stores preprocessing for data&lt;/li&gt;&lt;li&gt;Stores and updates testing/tuning results&lt;/li&gt;&lt;/ul&gt;&lt;/div&gt;" style="verticalAlign=top;align=left;overflow=fill;fontSize=12;fontFamily=Helvetica;html=1;whiteSpace=wrap;fillColor=#b1ddf0;strokeColor=#10739e;" parent="1" vertex="1">
          <mxGeometry x="183" y="160" width="290" height="140" as="geometry" />
        </mxCell>
        <mxCell id="JuY57Q7MH93AFdS4etgn-1" value="&lt;p style=&quot;margin:0px;margin-top:4px;text-align:center;&quot;&gt;&lt;b&gt;ModelFactory&lt;/b&gt;&lt;/p&gt;&lt;div style=&quot;height:2px;&quot;&gt;&lt;ul&gt;&lt;li&gt;Takes in multiple ModelSpecs&lt;/li&gt;&lt;li&gt;Takes in data to be modeled&lt;/li&gt;&lt;li&gt;Preprocesses data for each ModelSpec&lt;/li&gt;&lt;li&gt;Tunes each model&lt;/li&gt;&lt;li&gt;Computes metrics&lt;/li&gt;&lt;/ul&gt;&lt;/div&gt;" style="verticalAlign=top;align=left;overflow=fill;fontSize=12;fontFamily=Helvetica;html=1;whiteSpace=wrap;fillColor=#fad9d5;strokeColor=#ae4132;" parent="1" vertex="1">
          <mxGeometry x="183" y="390" width="290" height="120" as="geometry" />
        </mxCell>
        <mxCell id="JuY57Q7MH93AFdS4etgn-2" value="" style="shape=flexArrow;endArrow=classic;html=1;rounded=0;endWidth=30;endSize=7.116666666666666;" parent="1" edge="1">
          <mxGeometry width="50" height="50" relative="1" as="geometry">
            <mxPoint x="327.58" y="313" as="sourcePoint" />
            <mxPoint x="328" y="373" as="targetPoint" />
            <Array as="points">
              <mxPoint x="327.58" y="353" />
            </Array>
          </mxGeometry>
        </mxCell>
        <mxCell id="JuY57Q7MH93AFdS4etgn-3" value="&lt;p style=&quot;margin:0px;margin-top:4px;text-align:center;&quot;&gt;&lt;b&gt;ModelTester&lt;/b&gt;&lt;/p&gt;&lt;p style=&quot;margin: 4px 0px 0px;&quot;&gt;&lt;/p&gt;&lt;ul&gt;&lt;li&gt;Preprocesses test data&lt;/li&gt;&lt;li&gt;Predicts test data using each model spec&lt;/li&gt;&lt;li&gt;Contains visualisation methods&amp;nbsp;&lt;/li&gt;&lt;/ul&gt;&lt;p&gt;&lt;/p&gt;" style="verticalAlign=top;align=left;overflow=fill;fontSize=12;fontFamily=Helvetica;html=1;whiteSpace=wrap;fillColor=#e6d0de;strokeColor=#996185;gradientColor=#d5739d;" parent="1" vertex="1">
          <mxGeometry x="183" y="740" width="290" height="120" as="geometry" />
        </mxCell>
        <mxCell id="JuY57Q7MH93AFdS4etgn-4" value="" style="shape=flexArrow;endArrow=classic;html=1;rounded=0;endWidth=30;endSize=7.116666666666666;" parent="1" edge="1">
          <mxGeometry width="50" height="50" relative="1" as="geometry">
            <mxPoint x="327.28999999999996" y="663" as="sourcePoint" />
            <mxPoint x="328.71" y="723" as="targetPoint" />
            <Array as="points">
              <mxPoint x="327.28999999999996" y="703" />
            </Array>
          </mxGeometry>
        </mxCell>
        <mxCell id="JuY57Q7MH93AFdS4etgn-5" value="&lt;p style=&quot;margin:0px;margin-top:4px;text-align:center;&quot;&gt;&lt;b&gt;Tuned ModelSpec&lt;/b&gt;&lt;/p&gt;&lt;p style=&quot;margin: 4px 0px 0px;&quot;&gt;&lt;/p&gt;&lt;ul&gt;&lt;li&gt;Same but stores tuning history&lt;/li&gt;&lt;/ul&gt;&lt;p&gt;&lt;/p&gt;&lt;p&gt;&lt;/p&gt;" style="verticalAlign=top;align=left;overflow=fill;fontSize=12;fontFamily=Helvetica;html=1;whiteSpace=wrap;fillColor=#b1ddf0;strokeColor=#10739e;" parent="1" vertex="1">
          <mxGeometry x="183" y="600" width="290" height="50" as="geometry" />
        </mxCell>
        <mxCell id="JuY57Q7MH93AFdS4etgn-6" value="" style="shape=flexArrow;endArrow=classic;html=1;rounded=0;endWidth=30;endSize=7.116666666666666;" parent="1" edge="1">
          <mxGeometry width="50" height="50" relative="1" as="geometry">
            <mxPoint x="327.58" y="523" as="sourcePoint" />
            <mxPoint x="328" y="583" as="targetPoint" />
            <Array as="points">
              <mxPoint x="327.58" y="563" />
            </Array>
          </mxGeometry>
        </mxCell>
        <mxCell id="JuY57Q7MH93AFdS4etgn-7" value="Full raw data" style="shape=parallelogram;html=1;strokeWidth=2;perimeter=parallelogramPerimeter;whiteSpace=wrap;rounded=1;arcSize=12;size=0.23;" parent="1" vertex="1">
          <mxGeometry x="600" y="150" width="190" height="120" as="geometry" />
        </mxCell>
        <mxCell id="JuY57Q7MH93AFdS4etgn-10" style="edgeStyle=orthogonalEdgeStyle;rounded=0;orthogonalLoop=1;jettySize=auto;html=1;exitX=0.5;exitY=1;exitDx=0;exitDy=0;entryX=1.001;entryY=0.703;entryDx=0;entryDy=0;entryPerimeter=0;" parent="1" source="JuY57Q7MH93AFdS4etgn-7" target="JuY57Q7MH93AFdS4etgn-3" edge="1">
          <mxGeometry relative="1" as="geometry" />
        </mxCell>
        <mxCell id="JuY57Q7MH93AFdS4etgn-11" style="edgeStyle=orthogonalEdgeStyle;rounded=0;orthogonalLoop=1;jettySize=auto;html=1;exitX=0.25;exitY=1;exitDx=0;exitDy=0;entryX=1.001;entryY=0.647;entryDx=0;entryDy=0;entryPerimeter=0;" parent="1" source="JuY57Q7MH93AFdS4etgn-7" target="JuY57Q7MH93AFdS4etgn-1" edge="1">
          <mxGeometry relative="1" as="geometry" />
        </mxCell>
        <mxCell id="JuY57Q7MH93AFdS4etgn-12" value="Train/Validation data" style="text;html=1;align=center;verticalAlign=middle;resizable=0;points=[];autosize=1;strokeColor=none;fillColor=none;" parent="1" vertex="1">
          <mxGeometry x="490" y="430" width="130" height="30" as="geometry" />
        </mxCell>
        <mxCell id="JuY57Q7MH93AFdS4etgn-15" value="Test data" style="text;html=1;align=center;verticalAlign=middle;resizable=0;points=[];autosize=1;strokeColor=none;fillColor=none;" parent="1" vertex="1">
          <mxGeometry x="540" y="785" width="70" height="30" as="geometry" />
        </mxCell>
      </root>
    </mxGraphModel>
  </diagram>
</mxfile>
